<svg width="101" height="50" viewBox="0 0 101 50" fill="none" xmlns="http://www.w3.org/2000/svg">
<path d="M24.7778 18.864H19.3298V33H16.0418V18.864H10.5938V15.96H24.7778V18.864ZM23.6547 29.28C23.6547 28.464 23.8787 27.752 24.3267 27.144C24.7907 26.52 25.4307 26.04 26.2467 25.704C27.0627 25.368 27.9987 25.2 29.0547 25.2C29.5827 25.2 30.1187 25.24 30.6627 25.32C31.2067 25.4 31.6787 25.528 32.0787 25.704V25.032C32.0787 24.232 31.8387 23.616 31.3587 23.184C30.8947 22.752 30.1987 22.536 29.2707 22.536C28.5827 22.536 27.9267 22.656 27.3027 22.896C26.6787 23.136 26.0227 23.488 25.3347 23.952L24.3027 21.84C25.1347 21.296 25.9827 20.888 26.8467 20.616C27.7267 20.344 28.6467 20.208 29.6067 20.208C31.3987 20.208 32.7907 20.656 33.7827 21.552C34.7907 22.448 35.2947 23.728 35.2947 25.392V29.4C35.2947 29.736 35.3507 29.976 35.4627 30.12C35.5907 30.264 35.7907 30.352 36.0627 30.384V33C35.7747 33.048 35.5107 33.088 35.2707 33.12C35.0467 33.152 34.8547 33.168 34.6947 33.168C34.0547 33.168 33.5667 33.024 33.2307 32.736C32.9107 32.448 32.7107 32.096 32.6307 31.68L32.5587 31.032C32.0147 31.736 31.3347 32.28 30.5187 32.664C29.7027 33.048 28.8707 33.24 28.0227 33.24C27.1907 33.24 26.4387 33.072 25.7667 32.736C25.1107 32.384 24.5907 31.912 24.2067 31.32C23.8387 30.712 23.6547 30.032 23.6547 29.28ZM31.4787 29.928C31.6547 29.736 31.7987 29.544 31.9107 29.352C32.0227 29.16 32.0787 28.984 32.0787 28.824V27.552C31.6947 27.392 31.2787 27.272 30.8307 27.192C30.3827 27.096 29.9587 27.048 29.5587 27.048C28.7267 27.048 28.0387 27.232 27.4947 27.6C26.9667 27.952 26.7027 28.424 26.7027 29.016C26.7027 29.336 26.7907 29.64 26.9667 29.928C27.1427 30.216 27.3987 30.448 27.7347 30.624C28.0707 30.8 28.4707 30.888 28.9347 30.888C29.4147 30.888 29.8867 30.8 30.3507 30.624C30.8147 30.432 31.1907 30.2 31.4787 29.928ZM38.2759 15.48H41.4919V28.968C41.4919 29.544 41.5879 29.936 41.7799 30.144C41.9719 30.336 42.2359 30.432 42.5719 30.432C42.8279 30.432 43.0919 30.4 43.3639 30.336C43.6359 30.272 43.8759 30.192 44.0839 30.096L44.5159 32.544C44.0839 32.752 43.5799 32.912 43.0039 33.024C42.4279 33.136 41.9079 33.192 41.4439 33.192C40.4359 33.192 39.6519 32.928 39.0919 32.4C38.5479 31.856 38.2759 31.088 38.2759 30.096V15.48ZM54.5091 33L50.8371 27.576L49.1331 29.256V33H45.9171V15.48H49.1331V26.088L54.1971 20.448H57.6051L52.9251 25.776L57.9411 33H54.5091ZM66.7422 33.12C65.3822 33.12 64.2222 32.896 63.2622 32.448C62.3182 31.984 61.5502 31.352 60.9582 30.552C60.3822 29.752 59.9582 28.848 59.6862 27.84C59.4142 26.816 59.2782 25.752 59.2782 24.648V15.96H62.5902V24.648C62.5902 25.352 62.6542 26.04 62.7822 26.712C62.9262 27.368 63.1582 27.96 63.4782 28.488C63.7982 29.016 64.2222 29.432 64.7502 29.736C65.2782 30.04 65.9342 30.192 66.7182 30.192C67.5182 30.192 68.1822 30.04 68.7102 29.736C69.2542 29.416 69.6782 28.992 69.9822 28.464C70.3022 27.936 70.5342 27.344 70.6782 26.688C70.8222 26.016 70.8942 25.336 70.8942 24.648V15.96H74.1822V24.648C74.1822 25.816 74.0382 26.912 73.7502 27.936C73.4782 28.96 73.0382 29.864 72.4302 30.648C71.8382 31.416 71.0702 32.024 70.1262 32.472C69.1822 32.904 68.0542 33.12 66.7422 33.12ZM84.5313 33.24C83.5553 33.24 82.6913 33.024 81.9393 32.592C81.2033 32.144 80.6273 31.544 80.2113 30.792V38.112H76.9953V20.424H79.8033V22.584C80.2833 21.848 80.8913 21.272 81.6273 20.856C82.3633 20.424 83.2033 20.208 84.1473 20.208C84.9953 20.208 85.7713 20.376 86.4753 20.712C87.1953 21.048 87.8193 21.52 88.3473 22.128C88.8753 22.72 89.2833 23.408 89.5713 24.192C89.8753 24.96 90.0273 25.792 90.0273 26.688C90.0273 27.904 89.7873 29.008 89.3073 30C88.8433 30.992 88.1953 31.784 87.3633 32.376C86.5473 32.952 85.6033 33.24 84.5313 33.24ZM83.4513 30.504C83.9473 30.504 84.3953 30.4 84.7953 30.192C85.1953 29.984 85.5393 29.704 85.8273 29.352C86.1313 28.984 86.3553 28.576 86.4993 28.128C86.6593 27.664 86.7393 27.184 86.7393 26.688C86.7393 26.16 86.6513 25.672 86.4753 25.224C86.3153 24.776 86.0753 24.384 85.7553 24.048C85.4353 23.696 85.0593 23.424 84.6273 23.232C84.2113 23.04 83.7553 22.944 83.2593 22.944C82.9553 22.944 82.6433 23 82.3233 23.112C82.0193 23.208 81.7233 23.352 81.4353 23.544C81.1473 23.736 80.8913 23.96 80.6673 24.216C80.4593 24.472 80.3073 24.752 80.2113 25.056V28.008C80.4033 28.472 80.6593 28.896 80.9793 29.28C81.3153 29.664 81.6993 29.968 82.1313 30.192C82.5633 30.4 83.0033 30.504 83.4513 30.504Z" fill="white"/>
</svg>
