<svg width="86" height="23" viewBox="0 0 86 23" fill="none" xmlns="http://www.w3.org/2000/svg">
<path d="M14.184 3.38399H8.736V17.52H5.448V3.38399H1.47521e-06V0.479988H14.184V3.38399ZM13.0609 13.8C13.0609 12.984 13.2849 12.272 13.7329 11.664C14.1969 11.04 14.8369 10.56 15.6529 10.224C16.4689 9.88799 17.4049 9.71999 18.4609 9.71999C18.9889 9.71999 19.5249 9.75999 20.0689 9.83999C20.6129 9.91999 21.0849 10.048 21.4849 10.224V9.55199C21.4849 8.75199 21.2449 8.13599 20.7649 7.70399C20.3009 7.27199 19.6049 7.05599 18.6769 7.05599C17.9889 7.05599 17.3329 7.17599 16.7089 7.41599C16.0849 7.65599 15.4289 8.00799 14.7409 8.47199L13.7089 6.35999C14.5409 5.81599 15.3889 5.40799 16.2529 5.13599C17.1329 4.86399 18.0529 4.72799 19.0129 4.72799C20.8049 4.72799 22.1969 5.17599 23.1889 6.07199C24.1969 6.96799 24.7009 8.24799 24.7009 9.91199V13.92C24.7009 14.256 24.7569 14.496 24.8689 14.64C24.9969 14.784 25.1969 14.872 25.4689 14.904V17.52C25.1809 17.568 24.9169 17.608 24.6769 17.64C24.4529 17.672 24.2609 17.688 24.1009 17.688C23.4609 17.688 22.9729 17.544 22.6369 17.256C22.3169 16.968 22.1169 16.616 22.0369 16.2L21.9649 15.552C21.4209 16.256 20.7409 16.8 19.9249 17.184C19.1089 17.568 18.2769 17.76 17.4289 17.76C16.5969 17.76 15.8449 17.592 15.1729 17.256C14.5169 16.904 13.9969 16.432 13.6129 15.84C13.2449 15.232 13.0609 14.552 13.0609 13.8ZM20.8849 14.448C21.0609 14.256 21.2049 14.064 21.3169 13.872C21.4289 13.68 21.4849 13.504 21.4849 13.344V12.072C21.1009 11.912 20.6849 11.792 20.2369 11.712C19.7889 11.616 19.3649 11.568 18.9649 11.568C18.1329 11.568 17.4449 11.752 16.9009 12.12C16.3729 12.472 16.1089 12.944 16.1089 13.536C16.1089 13.856 16.1969 14.16 16.3729 14.448C16.5489 14.736 16.8049 14.968 17.1409 15.144C17.4769 15.32 17.8769 15.408 18.3409 15.408C18.8209 15.408 19.2929 15.32 19.7569 15.144C20.2209 14.952 20.5969 14.72 20.8849 14.448ZM27.6821 -1.14441e-05H30.8981V13.488C30.8981 14.064 30.9941 14.456 31.1861 14.664C31.3781 14.856 31.6421 14.952 31.9781 14.952C32.2341 14.952 32.4981 14.92 32.7701 14.856C33.0421 14.792 33.2821 14.712 33.4901 14.616L33.9221 17.064C33.4901 17.272 32.9861 17.432 32.4101 17.544C31.8341 17.656 31.3141 17.712 30.8501 17.712C29.8421 17.712 29.0581 17.448 28.4981 16.92C27.9541 16.376 27.6821 15.608 27.6821 14.616V-1.14441e-05ZM43.9153 17.52L40.2433 12.096L38.5393 13.776V17.52H35.3233V-1.14441e-05H38.5393V10.608L43.6033 4.96799H47.0113L42.3313 10.296L47.3473 17.52H43.9153ZM62.0078 17.64C60.6478 17.64 59.4878 17.416 58.5278 16.968C57.5838 16.504 56.8158 15.872 56.2238 15.072C55.6478 14.272 55.2238 13.368 54.9518 12.36C54.6798 11.336 54.5438 10.272 54.5438 9.16799V0.479988H57.8558V9.16799C57.8558 9.87199 57.9198 10.56 58.0478 11.232C58.1918 11.888 58.4238 12.48 58.7438 13.008C59.0638 13.536 59.4878 13.952 60.0158 14.256C60.5438 14.56 61.1998 14.712 61.9838 14.712C62.7838 14.712 63.4478 14.56 63.9758 14.256C64.5198 13.936 64.9438 13.512 65.2478 12.984C65.5678 12.456 65.7998 11.864 65.9438 11.208C66.0878 10.536 66.1598 9.85599 66.1598 9.16799V0.479988H69.4478V9.16799C69.4478 10.336 69.3038 11.432 69.0158 12.456C68.7438 13.48 68.3038 14.384 67.6958 15.168C67.1038 15.936 66.3358 16.544 65.3918 16.992C64.4478 17.424 63.3198 17.64 62.0078 17.64ZM79.7968 17.76C78.8208 17.76 77.9568 17.544 77.2048 17.112C76.4688 16.664 75.8928 16.064 75.4768 15.312V22.632H72.2608V4.94399H75.0688V7.10399C75.5488 6.36799 76.1568 5.79199 76.8928 5.37599C77.6288 4.94399 78.4688 4.72799 79.4128 4.72799C80.2608 4.72799 81.0368 4.89599 81.7408 5.23199C82.4608 5.56799 83.0848 6.03999 83.6128 6.64799C84.1408 7.23999 84.5488 7.92799 84.8368 8.71199C85.1408 9.47999 85.2928 10.312 85.2928 11.208C85.2928 12.424 85.0528 13.528 84.5728 14.52C84.1088 15.512 83.4608 16.304 82.6288 16.896C81.8128 17.472 80.8688 17.76 79.7968 17.76ZM78.7168 15.024C79.2128 15.024 79.6608 14.92 80.0608 14.712C80.4608 14.504 80.8048 14.224 81.0928 13.872C81.3968 13.504 81.6208 13.096 81.7648 12.648C81.9248 12.184 82.0048 11.704 82.0048 11.208C82.0048 10.68 81.9168 10.192 81.7408 9.74399C81.5808 9.29599 81.3408 8.90399 81.0208 8.56799C80.7008 8.21599 80.3248 7.94399 79.8928 7.75199C79.4768 7.55999 79.0208 7.46399 78.5248 7.46399C78.2208 7.46399 77.9088 7.51999 77.5888 7.63199C77.2848 7.72799 76.9888 7.87199 76.7008 8.06399C76.4128 8.25599 76.1568 8.47999 75.9328 8.73599C75.7248 8.99199 75.5728 9.27199 75.4768 9.57599V12.528C75.6688 12.992 75.9248 13.416 76.2448 13.8C76.5808 14.184 76.9648 14.488 77.3968 14.712C77.8288 14.92 78.2688 15.024 78.7168 15.024Z" fill="#931A25"/>
</svg>
