<svg width="107" height="48" viewBox="0 0 107 48" fill="none" xmlns="http://www.w3.org/2000/svg">
<rect width="107" height="48" rx="24" fill="white"/>
<path d="M24.52 17.864H19.072V32H15.784V17.864H10.336V14.96H24.52V17.864ZM23.3969 28.28C23.3969 27.464 23.6209 26.752 24.0689 26.144C24.5329 25.52 25.1729 25.04 25.9889 24.704C26.8049 24.368 27.7409 24.2 28.7969 24.2C29.3249 24.2 29.8609 24.24 30.4049 24.32C30.9489 24.4 31.4209 24.528 31.8209 24.704V24.032C31.8209 23.232 31.5809 22.616 31.1009 22.184C30.6369 21.752 29.9409 21.536 29.0129 21.536C28.3249 21.536 27.6689 21.656 27.0449 21.896C26.4209 22.136 25.7649 22.488 25.0769 22.952L24.0449 20.84C24.8769 20.296 25.7249 19.888 26.5889 19.616C27.4689 19.344 28.3889 19.208 29.3489 19.208C31.1409 19.208 32.5329 19.656 33.5249 20.552C34.5329 21.448 35.0369 22.728 35.0369 24.392V28.4C35.0369 28.736 35.0929 28.976 35.2049 29.12C35.3329 29.264 35.5329 29.352 35.8049 29.384V32C35.5169 32.048 35.2529 32.088 35.0129 32.12C34.7889 32.152 34.5969 32.168 34.4369 32.168C33.7969 32.168 33.3089 32.024 32.9729 31.736C32.6529 31.448 32.4529 31.096 32.3729 30.68L32.3009 30.032C31.7569 30.736 31.0769 31.28 30.2609 31.664C29.4449 32.048 28.6129 32.24 27.7649 32.24C26.9329 32.24 26.1809 32.072 25.5089 31.736C24.8529 31.384 24.3329 30.912 23.9489 30.32C23.5809 29.712 23.3969 29.032 23.3969 28.28ZM31.2209 28.928C31.3969 28.736 31.5409 28.544 31.6529 28.352C31.7649 28.16 31.8209 27.984 31.8209 27.824V26.552C31.4369 26.392 31.0209 26.272 30.5729 26.192C30.1249 26.096 29.7009 26.048 29.3009 26.048C28.4689 26.048 27.7809 26.232 27.2369 26.6C26.7089 26.952 26.4449 27.424 26.4449 28.016C26.4449 28.336 26.5329 28.64 26.7089 28.928C26.8849 29.216 27.1409 29.448 27.4769 29.624C27.8129 29.8 28.2129 29.888 28.6769 29.888C29.1569 29.888 29.6289 29.8 30.0929 29.624C30.5569 29.432 30.9329 29.2 31.2209 28.928ZM38.0181 14.48H41.2341V27.968C41.2341 28.544 41.3301 28.936 41.5221 29.144C41.7141 29.336 41.9781 29.432 42.3141 29.432C42.5701 29.432 42.8341 29.4 43.1061 29.336C43.3781 29.272 43.6181 29.192 43.8261 29.096L44.2581 31.544C43.8261 31.752 43.3221 31.912 42.7461 32.024C42.1701 32.136 41.6501 32.192 41.1861 32.192C40.1781 32.192 39.3941 31.928 38.8341 31.4C38.2901 30.856 38.0181 30.088 38.0181 29.096V14.48ZM54.2513 32L50.5793 26.576L48.8753 28.256V32H45.6593V14.48H48.8753V25.088L53.9393 19.448H57.3473L52.6673 24.776L57.6833 32H54.2513ZM72.3438 32.12C70.9838 32.12 69.8238 31.896 68.8638 31.448C67.9198 30.984 67.1518 30.352 66.5598 29.552C65.9838 28.752 65.5598 27.848 65.2878 26.84C65.0158 25.816 64.8798 24.752 64.8798 23.648V14.96H68.1918V23.648C68.1918 24.352 68.2558 25.04 68.3838 25.712C68.5278 26.368 68.7598 26.96 69.0798 27.488C69.3998 28.016 69.8238 28.432 70.3518 28.736C70.8798 29.04 71.5358 29.192 72.3198 29.192C73.1198 29.192 73.7838 29.04 74.3118 28.736C74.8558 28.416 75.2798 27.992 75.5838 27.464C75.9038 26.936 76.1358 26.344 76.2798 25.688C76.4238 25.016 76.4958 24.336 76.4958 23.648V14.96H79.7838V23.648C79.7838 24.816 79.6398 25.912 79.3518 26.936C79.0798 27.96 78.6398 28.864 78.0318 29.648C77.4398 30.416 76.6718 31.024 75.7278 31.472C74.7838 31.904 73.6558 32.12 72.3438 32.12ZM90.1328 32.24C89.1568 32.24 88.2928 32.024 87.5408 31.592C86.8048 31.144 86.2288 30.544 85.8128 29.792V37.112H82.5968V19.424H85.4048V21.584C85.8848 20.848 86.4928 20.272 87.2288 19.856C87.9648 19.424 88.8048 19.208 89.7488 19.208C90.5968 19.208 91.3728 19.376 92.0768 19.712C92.7968 20.048 93.4208 20.52 93.9488 21.128C94.4768 21.72 94.8848 22.408 95.1728 23.192C95.4768 23.96 95.6288 24.792 95.6288 25.688C95.6288 26.904 95.3888 28.008 94.9088 29C94.4448 29.992 93.7968 30.784 92.9648 31.376C92.1488 31.952 91.2048 32.24 90.1328 32.24ZM89.0528 29.504C89.5488 29.504 89.9968 29.4 90.3968 29.192C90.7968 28.984 91.1408 28.704 91.4288 28.352C91.7328 27.984 91.9568 27.576 92.1008 27.128C92.2608 26.664 92.3408 26.184 92.3408 25.688C92.3408 25.16 92.2528 24.672 92.0768 24.224C91.9168 23.776 91.6768 23.384 91.3568 23.048C91.0368 22.696 90.6608 22.424 90.2288 22.232C89.8128 22.04 89.3568 21.944 88.8608 21.944C88.5568 21.944 88.2448 22 87.9248 22.112C87.6208 22.208 87.3248 22.352 87.0368 22.544C86.7488 22.736 86.4928 22.96 86.2688 23.216C86.0608 23.472 85.9088 23.752 85.8128 24.056V27.008C86.0048 27.472 86.2608 27.896 86.5808 28.28C86.9168 28.664 87.3008 28.968 87.7328 29.192C88.1648 29.4 88.6048 29.504 89.0528 29.504Z" fill="#931A25"/>
</svg>
